<svg xmlns="http://www.w3.org/2000/svg" width="30" height="30" viewBox="0 0 30 30">
  <g id="ico_gift" transform="translate(-2.971 -3)">
    <rect id="area" width="30" height="30" transform="translate(2.971 3)" fill="rgba(255,102,102,0.2)" opacity="0"/>
    <g id="path" transform="translate(-188.329 -918.135)">
      <path id="패스_1449" data-name="패스 1449" d="M217.049,937.888H197.172a1.873,1.873,0,0,0-1.873,1.873v.7a1.874,1.874,0,0,0,1.873,1.873h15.237a1.873,1.873,0,0,1,1.872,1.873v5.28a1.873,1.873,0,0,1-1.872,1.873H199.94a1.874,1.874,0,0,1-1.873-1.873v-4.254" transform="translate(0 -5.224)" fill="none" stroke="#4d5156" stroke-miterlimit="10" stroke-width="1.5"/>
      <path id="패스_1450" data-name="패스 1450" d="M207.461,926.36c-.914.571-.686,1.4,0,2.489.666,1.064,1.325,1.661,2.239,1.089s.668-1.426,0-2.489c-.683-1.093-1.325-1.66-2.239-1.089" transform="translate(-5.137 0)" fill="#0080ff"/>
      <path id="패스_1451" data-name="패스 1451" d="M219.539,926.36c.914.571.686,1.4,0,2.489-.665,1.064-1.324,1.661-2.239,1.089s-.667-1.426,0-2.489c.683-1.093,1.325-1.66,2.239-1.089" transform="translate(-9.514 0)" fill="#0080ff"/>
    </g>
  </g>
</svg>
